HIERARCHY
ROOT Hips
{
	OFFSET 0.00000 0.00000 0.00000
	CHANNELS 6 Xposition Yposition Zposition Yrotation Zrotation Xrotation 
	JOINT Lumbar
	{
		OFFSET 0 0 0
		CHANNELS 3 Zrotation Xrotation Yrotation
		JOINT Neck
		{
			OFFSET 0.00 0.2701 0.00
			CHANNELS 3 Zrotation Xrotation Yrotation
			End Site
			{
				OFFSET 0.00 0.1379 0.00
			}
		}
		JOINT RightShoulder
		{
			OFFSET 0.0119 0.2289 0.1181
			CHANNELS 3 Zrotation Xrotation Yrotation
			JOINT RightElbow
			{
				OFFSET 0.00 -0.1475 0.00
				CHANNELS 2 Zrotation Yrotation
				JOINT RightWrist
				{
					OFFSET 0.00 -0.1605 0.00
					CHANNELS 2 Zrotation Xrotation
					End Site
					{
						OFFSET 0.0040 -0.1068 0.0006
					}
				}
			}
		}
		JOINT LeftShoulder
		{
			OFFSET 0.0119 0.2289 -0.1181
			CHANNELS 3 Zrotation Xrotation Yrotation
			JOINT LeftElbow
			{
				OFFSET 0.00 -0.1475 0.00
				CHANNELS 2 Zrotation Yrotation
				JOINT LeftWrist
				{
					OFFSET 0.00 -0.1605 0.00
					CHANNELS 2 Zrotation Xrotation
					End Site
					{
						OFFSET 0.0040 -0.1068 -0.0006
					}
				}
			}
		}
	}
	JOINT RightHip
	{
		OFFSET 0.0316 -0.0424 0.0458
		CHANNELS 3 Zrotation Xrotation Yrotation
		JOINT RightKnee
		{
			OFFSET 0.00 -0.2438 0.00
			CHANNELS 1 Zrotation
			JOINT RightAnkle
			{
				OFFSET 0.00 -0.2449 0.00
				CHANNELS 3 Zrotation Xrotation Yrotation
				End Site
				{
					OFFSET 0.1237 -0.0542 0.0051
				}
			}
		}
	}
	JOINT LeftHip
	{
		OFFSET 0.0316 -0.0424 -0.0458
		CHANNELS 3 Zrotation Xrotation Yrotation
		JOINT LeftKnee
		{
			OFFSET 0.00 -0.2438 0.00
			CHANNELS 1 Zrotation
			JOINT LeftAnkle
			{
				OFFSET 0.00 -0.2449 0.00
				CHANNELS 3 Zrotation Xrotation Yrotation
				End Site
				{
					OFFSET 0.1237 -0.0542 -0.0051
				}
			}
		}
	}
}
MOTION
Frames: 14
Frame Time: 0.02
-1.0279 0.56499 0.18056 1012.60509 0 -3.74079 5.10808 2.63088 3.97717 -17.76395 1.97705 2.04745 -3.71005 2.83489 55.63373 11.90507 92.34532 -22.8398 -4.83575 1.51807 -1.34405 -55.63397 14.66169 -92.59495 -8.05923 9.32498 -12.55948 2.96781 4.66151 -29.29822 -4.92521 -1.04658 2.93091 8.43601 -3.9876 0.26486 -2.73311 1.95305 3.39909 16.49698
-1.02045 0.56599 0.18941 1012.16575 0 -3.65097 5.43952 2.69583 3.40253 -17.95314 1.38327 1.67367 -3.39059 3.00326 55.63372 12.2319 91.03435 -22.45188 -4.61906 1.4678 -0.92421 -55.63399 14.94868 -93.86849 -8.46292 9.33499 -10.25784 2.36652 4.50747 -33.57297 -7.42449 -1.09071 3.59109 7.42736 -4.3005 1.84257 -2.84749 2.18721 3.45264 15.04394
-1.01316 0.56689 0.19759 1011.73617 0 -3.69035 5.60884 2.9197 2.92171 -17.81645 0.67661 1.30428 -3.37055 3.26079 55.63371 12.61696 89.24172 -21.95428 -4.31784 1.09579 -0.38063 -55.63401 15.28456 -95.39562 -8.76591 9.39339 -7.44965 1.90348 4.43302 -38.29926 -9.99585 -1.28365 3.97558 6.52335 -4.51229 4.4024 -3.08047 2.78523 3.61715 12.66839
-1.00582 0.56783 0.20605 1011.3203 0 -3.67682 5.84916 3.07282 2.39505 -17.8331 0.03119 0.92343 -3.21089 3.47791 55.6337 12.96114 87.75231 -21.51152 -4.06542 0.87734 0.09871 -55.63403 15.58804 -96.76682 -9.11058 9.42602 -4.88523 1.40132 4.32687 -42.75092 -12.37322 -1.3966 4.46415 5.56938 -4.76708 6.42152 -3.24924 3.20993 3.72934 10.79408
-0.99834 0.56882 0.21463 1010.82772 0 -3.63591 6.10345 3.21942 1.87832 -17.82988 -0.66255 0.57904 -3.06117 3.69789 55.63369 13.36613 85.92434 -21.04184 -3.77144 0.62973 0.6164 -55.63405 15.9347 -98.32134 -9.47773 9.47224 -2.24981 0.79411 4.19312 -47.52526 -15.43698 -1.55619 5.05483 4.61774 -5.04136 8.81404 -3.45284 3.66498 3.85075 8.5944
-0.99121 0.56966 0.2228 1010.50113 0 -3.68378 6.28865 3.41649 1.3638 -17.79037 -1.27801 0.16231 -2.96329 3.93062 55.63369 13.65864 84.67357 -20.60538 -3.54296 0.36654 1.08016 -55.63407 16.20317 -99.54769 -9.77424 9.50314 0.34986 0.44092 4.13817 -51.71016 -17.09332 -1.65935 5.35968 3.68942 -5.24762 10.67009 -3.61604 4.1442 3.97851 6.84334
-0.98495 0.57012 0.23003 1010.58318 0 -3.9457 6.32816 3.72633 0.84268 -17.72221 -1.67453 -0.46979 -2.94237 4.19122 55.63376 13.62217 85.22069 -20.27587 -3.5174 0.12751 1.38641 -55.63407 16.24306 -99.81699 -9.89161 9.47591 2.76136 0.74934 4.29457 -54.3161 -14.75738 -1.52893 4.97827 2.7962 -5.29946 10.82359 -3.63094 4.605 4.10124 6.58191
-0.97904 0.57043 0.23688 1010.84026 0 -4.29272 6.30222 4.07943 0.31986 -17.62943 -1.98327 -1.17139 -2.9633 4.45849 55.63384 13.47133 86.34838 -19.98648 -3.56 -0.11539 1.63026 -55.63407 16.20398 -99.73371 -9.95386 9.4349 5.1106 1.31011 4.52741 -56.27924 -11.01941 -1.34373 4.31138 1.92464 -5.28384 10.40348 -3.6038 5.07748 4.22588 6.79668
-0.973 0.5708 0.24389 1011.04749 0 -4.601 6.30263 4.40487 -0.20908 -17.55337 -2.31517 -1.83192 -2.96052 4.7131 55.6339 13.37537 87.15176 -19.68698 -3.57037 -0.34805 1.88736 -55.63407 16.1998 -99.8161 -10.03082 9.40011 7.46541 1.76019 4.71676 -58.43313 -7.97617 -1.21204 3.74975 1.04656 -5.29255 10.23737 -3.60195 5.54243 4.34608 6.77404
-0.96684 0.57118 0.25094 1011.12935 0 -4.91445 6.31254 4.76955 -0.70827 -17.44442 -2.72128 -2.53424 -2.98565 5.01197 55.63402 13.26869 88.19175 -19.34908 -3.58364 -0.62344 2.21027 -55.63407 16.19605 -99.92629 -10.09903 9.35762 9.93773 2.19919 4.94174 -61.0403 -4.68286 -0.96813 3.27942 0.15772 -5.32455 10.13354 -3.57744 6.02888 4.48389 6.80732
-0.961 0.57152 0.25782 1011.51429 0 -5.23513 6.28825 5.06079 -1.26785 -17.40015 -2.95106 -3.16376 -2.9615 5.21846 55.63403 13.15703 88.88558 -19.10234 -3.60751 -0.8119 2.38261 -55.63407 16.17883 -99.83919 -10.23513 9.33922 12.13921 2.71815 5.11459 -62.53314 -1.58873 -0.9387 2.55796 -0.70459 -5.29332 9.75069 -3.58932 6.46921 4.58571 6.85027
-0.95595 0.57183 0.26434 1012.68917 0 -5.55874 6.1945 5.137 -2.02074 -17.56071 -2.70979 -3.59463 -2.76604 5.17297 55.63378 13.05412 88.46242 -19.09668 -3.65014 -0.71109 2.12772 -55.63407 16.0832 -99.75471 -10.02602 9.28437 13.64412 3.40591 5.08067 -61.20203 0.72022 -1.55128 1.18777 -1.5016 -5.10401 8.73733 -3.70624 6.77269 4.57241 6.79735
-0.95119 0.57211 0.27072 1014.16382 0 -5.88519 6.06765 5.13732 -2.82942 -17.7849 -2.29476 -3.94618 -2.52272 5.03297 55.63342 12.95088 87.67761 -19.18203 -3.70053 -0.52933 1.72744 -55.63407 15.98642 -99.40726 -9.97538 9.2711 14.86887 4.16246 4.99815 -58.75202 2.76181 -2.37395 -0.41762 -2.27256 -4.85387 7.45834 -3.862 7.02884 4.52491 6.74322
-0.94628 0.57238 0.27715 1015.50378 0 -6.20742 5.95101 5.17266 -3.5958 -17.96858 -1.96216 -4.32142 -2.31619 4.93262 55.6331 12.85108 87.07227 -19.2269 -3.74356 -0.41559 1.41105 -55.63406 15.93134 -98.86273 -10.2289 9.31177 16.19615 4.88106 4.96821 -56.74834 4.85395 -3.07602 -1.89959 -3.05438 -4.63205 6.29611 -4.00282 7.30909 4.50274 6.69849
